<svg width="534" height="514" viewBox="0 0 534 514" fill="none" xmlns="http://www.w3.org/2000/svg">
<path d="M168.409 355.528C157.24 360.206 152.997 371.674 160.298 378.221C175.318 391.692 237.153 385.038 240.063 375.906C242.929 366.909 191.717 345.763 168.409 355.528Z" stroke="url(#paint0_linear_209_1969)" stroke-miterlimit="10"/>
<path d="M196.086 325.564C221.6 316.624 264.441 380.273 246.758 395.3C235.885 404.539 209.565 403.385 188.102 400.348C167.952 397.498 139.161 385.843 132.058 366.487C128.297 356.212 130.555 341.572 138.52 336.445C144.685 332.478 153.008 334.263 154.844 333.603C163.596 337.235 164.881 338.646 171.854 339.498C180.969 340.612 189.07 328.022 196.086 325.564Z" stroke="url(#paint1_linear_209_1969)" stroke-miterlimit="10"/>
<path d="M221.974 294.258C251.606 298.991 283.806 391.957 251.662 413.352C231.191 426.978 195.502 420.961 170.627 413.758C147.776 407.141 109.727 385.059 102.028 353.413C97.5535 335.025 102.991 309.158 118.571 301.676C130.99 295.713 146.992 300.84 149.809 301.235C166.462 310.196 167.809 314.755 180.209 317.825C196.627 321.883 209.59 292.271 221.974 294.258Z" stroke="url(#paint2_linear_209_1969)" stroke-miterlimit="10"/>
<path d="M245.984 263.161C278.702 271.885 301.295 403.774 254.691 431.61C224.613 449.573 179.544 438.798 151.275 427.373C125.701 417.04 78.5532 384.526 70.1224 340.544C65.0364 314.02 73.5239 276.982 96.7424 267.112C115.399 259.178 139.226 267.32 142.893 269.073C168.526 281.33 168.85 291.07 186.696 296.357C210.401 303.398 228.85 258.602 245.984 263.161Z" stroke="url(#paint3_linear_209_1969)" stroke-miterlimit="10"/>
<path d="M268.551 233.479C304.783 246.063 317.281 416.873 256.275 451.285C216.55 473.494 162.12 458.078 130.482 442.408C102.156 428.381 45.9685 385.438 36.7617 329.09C31.1024 294.453 42.6021 246.231 73.4618 233.957C98.3674 224.06 129.83 235.669 134.527 238.316C167.568 256.942 168.423 268.84 191.709 276.306C222.706 286.33 246.863 225.948 268.551 233.479Z" stroke="url(#paint4_linear_209_1969)" stroke-miterlimit="10"/>
<path d="M49.1672 201.197C80.3107 189.34 119.39 204.399 125.147 207.957C165.508 232.911 167.001 246.915 195.719 256.631C234.014 269.586 264.022 193.464 290.085 204.172C330.119 220.621 332.366 430.569 256.827 471.336C207.537 497.936 143.642 477.753 108.653 457.815C77.5798 440.112 12.3941 386.738 2.38967 318.014C-3.8293 275.268 10.6609 215.856 49.1672 201.197Z" stroke="url(#paint5_linear_209_1969)" stroke-miterlimit="10"/>
<path d="M386.171 179.564C373.903 179.462 359.191 158.183 370.193 154.63C376.548 152.575 393.371 155.825 399.98 161.609C409.286 169.749 394.612 179.638 386.171 179.564Z" stroke="url(#paint6_linear_209_1969)" stroke-miterlimit="10"/>
<path d="M352.832 157.61C354.032 154.754 359.654 153.486 364.783 150.009C375.188 142.951 376.68 139.598 384.07 135.342C386.952 133.679 390.83 131.494 394.615 132.494C400.412 134.028 401.859 140.663 409.216 152.351C418.756 167.537 422.368 171.463 419.642 179.51C419.007 181.382 418.185 187.442 413.591 191.138C407.229 196.249 399.771 192.301 390.448 195.684C379.252 199.74 373.7 206.96 368.842 203.769C365.418 201.522 365.291 195.367 362.728 184.651C360.776 176.487 359.548 171.13 357.174 166.761C354.327 161.558 351.496 160.785 352.832 157.61Z" stroke="url(#paint7_linear_209_1969)" stroke-miterlimit="10"/>
<path d="M334.08 163.562C334.288 158.5 342.238 156.05 348.789 148.735C362.225 133.73 356.001 123.008 366.77 112.046C371.34 107.392 378.511 102.885 385.698 103.758C395.897 104.999 399.323 115.537 415.024 136.902C435.552 164.835 444.297 170.306 442.38 185.192C441.988 188.226 441.606 199.875 433.584 206.887C422.884 216.237 410.06 207.73 393.309 214.758C374.593 222.6 367.598 239.365 361.287 235.896C356.904 233.487 358.583 223.784 355.214 204.861C352.829 191.411 351.355 183.55 346.588 177.112C340.572 168.992 333.856 169.059 334.08 163.562Z" stroke="url(#paint8_linear_209_1969)" stroke-miterlimit="10"/>
<path d="M315.31 169.448C314.499 162.193 324.792 158.546 332.777 147.394C349.217 124.436 335.043 106.492 349.452 88.6827C355.619 81.0626 366.197 74.2456 376.761 74.9567C391.403 75.941 396.813 90.2997 420.835 121.389C452.416 162.01 466.017 169.162 465.125 190.808C464.949 195.029 465.03 212.238 453.585 222.578C438.545 236.161 420.327 223.079 396.181 233.773C369.926 245.401 361.511 271.704 353.729 267.967C348.389 265.381 351.81 252.142 347.697 225.012C344.858 206.275 343.146 195.949 335.997 187.404C326.782 176.393 316.178 177.263 315.31 169.448Z" stroke="url(#paint9_linear_209_1969)" stroke-miterlimit="10"/>
<path d="M296.496 175.319C294.676 165.879 307.285 161.02 316.721 146.039C336.13 115.115 313.977 90.0185 332.093 65.3058C339.837 54.7328 353.848 45.6038 367.784 46.1392C386.879 46.8747 394.188 65.103 426.592 105.862C469.127 159.241 487.638 168.056 487.802 196.411C487.835 201.819 488.37 224.571 473.515 238.254C454.117 256.052 430.539 238.403 398.982 252.775C365.183 268.172 355.349 304.037 346.129 300.024C339.829 297.271 344.993 280.484 340.137 245.15C336.835 221.124 334.897 208.344 325.365 197.682C312.944 183.794 298.454 185.47 296.496 175.319Z" stroke="url(#paint10_linear_209_1969)" stroke-miterlimit="10"/>
<path d="M277.647 181.187C280.694 193.68 299.065 191.192 314.69 207.957C326.607 220.74 328.772 235.966 332.536 265.284C338.125 308.82 331.225 329.157 338.485 332.075C349.157 336.367 360.408 290.938 401.756 271.774C440.709 253.721 469.694 275.976 493.418 253.927C511.708 236.926 510.691 208.631 510.453 202.008C509.193 166.953 485.802 156.466 432.31 90.3295C391.522 39.9009 382.323 17.8085 358.764 17.319C341.459 16.9594 324.005 28.4058 314.69 41.9263C292.878 73.5641 323.054 105.827 300.63 144.682C289.763 163.51 274.811 169.565 277.647 181.187Z" stroke="url(#paint11_linear_209_1969)" stroke-miterlimit="10"/>
<path d="M433.54 382.263C430.339 380.641 423.617 383.767 423.022 388.637C422.349 394.161 429.955 398.731 433.297 397.311C437.25 395.629 437.788 384.41 433.54 382.263Z" stroke="url(#paint12_linear_209_1969)" stroke-miterlimit="10"/>
<path d="M442.561 411.616C448.017 406.513 450.402 397.149 453.13 381.098C455.834 365.181 455.41 353.786 453.033 352.959C451.738 352.513 448.069 356.004 444.921 358.562C439.029 363.337 428.944 362.807 426.359 363.324C416.895 365.217 414.116 368.732 410.16 375.465C408.329 378.575 404.06 385.47 402.181 393.582C399.315 405.867 386.468 409.653 388.034 414.577C389.351 418.687 402.078 419.685 410.33 419.801C422.157 419.969 434.125 419.496 442.561 411.616Z" stroke="url(#paint13_linear_209_1969)" stroke-miterlimit="10"/>
<path d="M452.019 425.334C460.988 416.216 464.516 400.913 469.951 372.296C475.473 343.541 475.437 323.817 472.717 323.081C470.676 322.519 464.065 329.628 458.446 334.709C447.855 344.327 428.895 342.746 424.988 343.362C407.169 346.115 402.778 352.71 395.872 365.176C392.995 370.368 385.103 383.023 381.507 397.968C375.972 420.864 349.73 426.859 351.902 435.347C353.716 442.416 378.051 443.5 393.363 442.919C414.984 442.078 436.864 440.747 452.019 425.334Z" stroke="url(#paint14_linear_209_1969)" stroke-miterlimit="10"/>
<path d="M461.426 438.962C473.915 425.831 478.547 404.58 486.718 363.405C495.016 321.802 495.403 293.796 492.348 293.098C489.549 292.449 480.002 303.158 471.928 310.775C456.664 325.261 428.806 322.597 423.574 323.295C397.406 326.789 391.379 336.559 381.542 354.784C377.616 362.055 366.105 380.473 360.787 402.244C352.591 435.753 312.952 443.952 315.723 456.006C318.038 466.033 353.986 467.247 376.353 465.92C407.761 464.148 439.586 461.926 461.426 438.962Z" stroke="url(#paint15_linear_209_1969)" stroke-miterlimit="10"/>
<path d="M470.803 452.583C486.821 435.439 492.55 408.236 503.458 354.503C514.544 300.059 515.355 263.778 511.954 263.105C508.395 262.393 495.906 276.658 485.382 286.817C465.417 306.138 428.692 302.419 422.135 303.217C387.617 307.406 379.909 320.375 367.184 344.379C362.193 353.724 347.081 377.91 340.045 406.508C329.181 450.628 276.144 461.033 279.523 476.655C282.333 489.634 329.894 490.93 359.318 488.912C400.501 486.135 442.29 483.104 470.803 452.583Z" stroke="url(#paint16_linear_209_1969)" stroke-miterlimit="10"/>
<path d="M420.683 283.131C377.818 287.999 368.498 304.223 352.815 333.968C346.786 345.404 328.042 375.341 319.287 410.764C305.768 465.5 239.325 478.11 243.307 497.295C246.617 513.249 305.789 514.601 342.27 511.897C393.244 508.112 444.989 504.277 480.169 466.198C499.716 445.039 506.541 411.892 520.187 345.596C534.039 278.307 535.275 233.76 531.543 233.105C527.217 232.348 511.805 250.141 498.826 262.85C474.156 287.003 428.568 282.236 420.683 283.131Z" stroke="url(#paint17_linear_209_1969)" stroke-miterlimit="10"/>
<path d="M72.1504 153.064C77.0174 171.723 111.952 162.959 153.538 204.983C168.439 220.042 178.43 235.793 198.152 238.243C200.142 238.489 219.9 240.65 233.844 227.968C251.387 212.014 240.679 189.881 261.153 159.013C268.694 147.643 269.949 150.944 275.484 141.978C299.105 103.701 263.078 64.8434 283.866 25.9721C293.435 8.07916 307.66 3.97165 306.308 1.63531C300.473 -8.38875 58.9986 102.787 72.1504 153.064Z" stroke="url(#paint18_linear_209_1969)" stroke-miterlimit="10"/>
<path d="M203.56 212.736C204.755 212.573 217.783 213.547 226.719 204.58C238.019 193.258 229.964 177.669 242.91 156.623C247.674 148.873 248.337 150.974 251.727 144.844C266.193 118.685 240.23 92.3684 252.944 66.7606C258.828 54.9059 268.116 52.1883 266.734 51.0309C260.485 45.7525 101.098 123.73 113.617 157.661C118.311 170.387 143.936 165.871 173.257 193.28C183.919 203.239 191.138 214.42 203.56 212.736Z" stroke="url(#paint19_linear_209_1969)" stroke-miterlimit="10"/>
<path d="M208.968 187.225C209.309 186.368 215.679 186.387 219.594 181.192C224.678 174.454 219.264 165.476 224.667 154.235C226.649 150.109 226.73 150.99 227.974 147.71C233.314 133.603 217.361 119.91 222.025 107.546C224.207 101.727 228.263 100.735 227.181 100.424C219.275 101.546 143.36 144.749 155.071 162.258C159.643 169.1 176.01 168.772 192.963 181.576C199.407 186.444 203.625 190.008 208.968 187.225Z" stroke="url(#paint20_linear_209_1969)" stroke-miterlimit="10"/>
<path d="M214.376 161.717C210.179 149.454 193.658 145.285 187.607 149.819C178.684 156.515 186.296 165.233 196.53 166.855C204.179 168.059 219.178 175.752 214.376 161.717Z" stroke="url(#paint21_linear_209_1969)" stroke-miterlimit="10"/>
<defs>
<linearGradient id="paint0_linear_209_1969" x1="171.5" y1="389" x2="514" y2="89.5" gradientUnits="userSpaceOnUse">
<stop stop-color="#1934A2"/>
<stop offset="1" stop-color="#1934A2" stop-opacity="0"/>
</linearGradient>
<linearGradient id="paint1_linear_209_1969" x1="171.5" y1="389" x2="514" y2="89.5" gradientUnits="userSpaceOnUse">
<stop stop-color="#1934A2"/>
<stop offset="1" stop-color="#1934A2" stop-opacity="0"/>
</linearGradient>
<linearGradient id="paint2_linear_209_1969" x1="171.5" y1="389" x2="514" y2="89.5" gradientUnits="userSpaceOnUse">
<stop stop-color="#1934A2"/>
<stop offset="1" stop-color="#1934A2" stop-opacity="0"/>
</linearGradient>
<linearGradient id="paint3_linear_209_1969" x1="171.5" y1="389" x2="514" y2="89.5" gradientUnits="userSpaceOnUse">
<stop stop-color="#1934A2"/>
<stop offset="1" stop-color="#1934A2" stop-opacity="0"/>
</linearGradient>
<linearGradient id="paint4_linear_209_1969" x1="171.5" y1="389" x2="514" y2="89.5" gradientUnits="userSpaceOnUse">
<stop stop-color="#1934A2"/>
<stop offset="1" stop-color="#1934A2" stop-opacity="0"/>
</linearGradient>
<linearGradient id="paint5_linear_209_1969" x1="171.5" y1="389" x2="514" y2="89.5" gradientUnits="userSpaceOnUse">
<stop stop-color="#1934A2"/>
<stop offset="1" stop-color="#1934A2" stop-opacity="0"/>
</linearGradient>
<linearGradient id="paint6_linear_209_1969" x1="171.5" y1="389" x2="514" y2="89.5" gradientUnits="userSpaceOnUse">
<stop stop-color="#1934A2"/>
<stop offset="1" stop-color="#1934A2" stop-opacity="0"/>
</linearGradient>
<linearGradient id="paint7_linear_209_1969" x1="171.5" y1="389" x2="514" y2="89.5" gradientUnits="userSpaceOnUse">
<stop stop-color="#1934A2"/>
<stop offset="1" stop-color="#1934A2" stop-opacity="0"/>
</linearGradient>
<linearGradient id="paint8_linear_209_1969" x1="171.5" y1="389" x2="514" y2="89.5" gradientUnits="userSpaceOnUse">
<stop stop-color="#1934A2"/>
<stop offset="1" stop-color="#1934A2" stop-opacity="0"/>
</linearGradient>
<linearGradient id="paint9_linear_209_1969" x1="171.5" y1="389" x2="514" y2="89.5" gradientUnits="userSpaceOnUse">
<stop stop-color="#1934A2"/>
<stop offset="1" stop-color="#1934A2" stop-opacity="0"/>
</linearGradient>
<linearGradient id="paint10_linear_209_1969" x1="171.5" y1="389" x2="514" y2="89.5" gradientUnits="userSpaceOnUse">
<stop stop-color="#1934A2"/>
<stop offset="1" stop-color="#1934A2" stop-opacity="0"/>
</linearGradient>
<linearGradient id="paint11_linear_209_1969" x1="171.5" y1="389" x2="514" y2="89.5" gradientUnits="userSpaceOnUse">
<stop stop-color="#1934A2"/>
<stop offset="1" stop-color="#1934A2" stop-opacity="0"/>
</linearGradient>
<linearGradient id="paint12_linear_209_1969" x1="171.5" y1="389" x2="514" y2="89.5" gradientUnits="userSpaceOnUse">
<stop stop-color="#1934A2"/>
<stop offset="1" stop-color="#1934A2" stop-opacity="0"/>
</linearGradient>
<linearGradient id="paint13_linear_209_1969" x1="171.5" y1="389" x2="514" y2="89.5" gradientUnits="userSpaceOnUse">
<stop stop-color="#1934A2"/>
<stop offset="1" stop-color="#1934A2" stop-opacity="0"/>
</linearGradient>
<linearGradient id="paint14_linear_209_1969" x1="171.5" y1="389" x2="514" y2="89.5" gradientUnits="userSpaceOnUse">
<stop stop-color="#1934A2"/>
<stop offset="1" stop-color="#1934A2" stop-opacity="0"/>
</linearGradient>
<linearGradient id="paint15_linear_209_1969" x1="171.5" y1="389" x2="514" y2="89.5" gradientUnits="userSpaceOnUse">
<stop stop-color="#1934A2"/>
<stop offset="1" stop-color="#1934A2" stop-opacity="0"/>
</linearGradient>
<linearGradient id="paint16_linear_209_1969" x1="171.5" y1="389" x2="514" y2="89.5" gradientUnits="userSpaceOnUse">
<stop stop-color="#1934A2"/>
<stop offset="1" stop-color="#1934A2" stop-opacity="0"/>
</linearGradient>
<linearGradient id="paint17_linear_209_1969" x1="171.5" y1="389" x2="514" y2="89.5" gradientUnits="userSpaceOnUse">
<stop stop-color="#1934A2"/>
<stop offset="1" stop-color="#1934A2" stop-opacity="0"/>
</linearGradient>
<linearGradient id="paint18_linear_209_1969" x1="171.5" y1="389" x2="514" y2="89.5" gradientUnits="userSpaceOnUse">
<stop stop-color="#1934A2"/>
<stop offset="1" stop-color="#1934A2" stop-opacity="0"/>
</linearGradient>
<linearGradient id="paint19_linear_209_1969" x1="171.5" y1="389" x2="514" y2="89.5" gradientUnits="userSpaceOnUse">
<stop stop-color="#1934A2"/>
<stop offset="1" stop-color="#1934A2" stop-opacity="0"/>
</linearGradient>
<linearGradient id="paint20_linear_209_1969" x1="171.5" y1="389" x2="514" y2="89.5" gradientUnits="userSpaceOnUse">
<stop stop-color="#1934A2"/>
<stop offset="1" stop-color="#1934A2" stop-opacity="0"/>
</linearGradient>
<linearGradient id="paint21_linear_209_1969" x1="171.5" y1="389" x2="514" y2="89.5" gradientUnits="userSpaceOnUse">
<stop stop-color="#1934A2"/>
<stop offset="1" stop-color="#1934A2" stop-opacity="0"/>
</linearGradient>
</defs>
</svg>
