<svg width="366" height="450" viewBox="0 0 366 450" fill="none" xmlns="http://www.w3.org/2000/svg">
<path d="M168.409 291.528C157.24 296.206 152.997 307.674 160.298 314.221C175.318 327.692 237.153 321.038 240.063 311.906C242.929 302.909 191.717 281.763 168.409 291.528Z" stroke="url(#paint0_linear_209_1970)" stroke-miterlimit="10"/>
<path d="M196.086 261.564C221.6 252.624 264.441 316.273 246.758 331.3C235.885 340.539 209.565 339.385 188.102 336.348C167.952 333.498 139.161 321.843 132.058 302.487C128.297 292.212 130.555 277.572 138.52 272.445C144.685 268.478 153.008 270.263 154.844 269.603C163.596 273.235 164.881 274.646 171.854 275.498C180.969 276.612 189.07 264.022 196.086 261.564Z" stroke="url(#paint1_linear_209_1970)" stroke-miterlimit="10"/>
<path d="M221.974 230.258C251.606 234.991 283.806 327.957 251.662 349.352C231.191 362.978 195.502 356.961 170.627 349.758C147.776 343.141 109.727 321.059 102.028 289.413C97.5535 271.025 102.991 245.158 118.571 237.676C130.99 231.713 146.992 236.84 149.809 237.235C166.462 246.196 167.809 250.755 180.209 253.825C196.627 257.883 209.59 228.271 221.974 230.258Z" stroke="url(#paint2_linear_209_1970)" stroke-miterlimit="10"/>
<path d="M245.984 199.161C278.702 207.885 301.295 339.774 254.691 367.61C224.613 385.573 179.544 374.798 151.275 363.373C125.701 353.04 78.5532 320.526 70.1224 276.544C65.0364 250.02 73.5239 212.982 96.7424 203.112C115.399 195.178 139.226 203.32 142.893 205.073C168.526 217.33 168.85 227.07 186.696 232.357C210.401 239.398 228.85 194.602 245.984 199.161Z" stroke="url(#paint3_linear_209_1970)" stroke-miterlimit="10"/>
<path d="M268.551 169.479C304.783 182.063 317.281 352.873 256.275 387.285C216.55 409.494 162.12 394.078 130.482 378.408C102.156 364.381 45.9685 321.438 36.7617 265.09C31.1024 230.453 42.6021 182.231 73.4618 169.957C98.3674 160.06 129.83 171.669 134.527 174.316C167.568 192.942 168.423 204.84 191.709 212.306C222.706 222.33 246.863 161.948 268.551 169.479Z" stroke="url(#paint4_linear_209_1970)" stroke-miterlimit="10"/>
<path d="M49.1672 137.197C80.3107 125.34 119.39 140.399 125.147 143.957C165.508 168.911 167.001 182.915 195.719 192.631C234.014 205.586 264.022 129.464 290.085 140.172C330.119 156.621 332.366 366.569 256.827 407.336C207.537 433.936 143.642 413.753 108.653 393.815C77.5798 376.112 12.3941 322.738 2.38967 254.014C-3.8293 211.268 10.6609 151.856 49.1672 137.197Z" stroke="url(#paint5_linear_209_1970)" stroke-miterlimit="10"/>
<path d="M386.171 115.564C373.903 115.462 359.191 94.1833 370.193 90.6301C376.548 88.575 393.371 91.8253 399.98 97.6093C409.286 105.749 394.612 115.638 386.171 115.564Z" stroke="url(#paint6_linear_209_1970)" stroke-miterlimit="10"/>
<path d="M352.832 93.61C354.032 90.7544 359.654 89.4862 364.783 86.0088C375.188 78.9511 376.68 75.598 384.07 71.3418C386.952 69.6788 390.83 67.4939 394.615 68.4944C400.412 70.0276 401.859 76.6634 409.216 88.3505C418.756 103.537 422.368 107.463 419.642 115.51C419.007 117.382 418.185 123.442 413.591 127.138C407.229 132.249 399.771 128.301 390.448 131.684C379.252 135.74 373.7 142.96 368.842 139.769C365.418 137.522 365.291 131.367 362.728 120.651C360.776 112.487 359.548 107.13 357.174 102.761C354.327 97.5579 351.496 96.7846 352.832 93.61Z" stroke="url(#paint7_linear_209_1970)" stroke-miterlimit="10"/>
<path d="M334.08 99.5617C334.288 94.4996 342.238 92.0497 348.789 84.7352C362.225 69.7302 356.001 59.0084 366.77 48.046C371.34 43.3923 378.511 38.8846 385.698 39.758C395.897 40.9992 399.323 51.537 415.024 72.902C435.552 100.835 444.297 106.306 442.38 121.192C441.988 124.226 441.606 135.875 433.584 142.887C422.884 152.237 410.06 143.73 393.309 150.758C374.593 158.6 367.598 175.365 361.287 171.896C356.904 169.487 358.583 159.784 355.214 140.861C352.829 127.411 351.355 119.55 346.588 113.112C340.572 104.992 333.856 105.059 334.08 99.5617Z" stroke="url(#paint8_linear_209_1970)" stroke-miterlimit="10"/>
<path d="M315.31 105.448C314.499 98.1934 324.792 94.5456 332.777 83.3939C349.217 60.4362 335.043 42.4918 349.452 24.6827C355.619 17.0626 366.197 10.2456 376.761 10.9567C391.403 11.941 396.813 26.2997 420.835 57.3887C452.416 98.0095 466.017 105.162 465.125 126.808C464.949 131.029 465.03 148.238 453.585 158.578C438.545 172.161 420.327 159.079 396.181 169.773C369.926 181.401 361.511 207.704 353.729 203.967C348.389 201.381 351.81 188.142 347.697 161.012C344.858 142.275 343.146 131.949 335.997 123.404C326.782 112.393 316.178 113.263 315.31 105.448Z" stroke="url(#paint9_linear_209_1970)" stroke-miterlimit="10"/>
<path d="M296.496 111.319C294.676 101.879 307.285 97.0198 316.721 82.0392C336.13 51.1152 313.977 26.0185 332.093 1.30583C339.837 -9.26716 353.848 -18.3962 367.784 -17.8608C386.879 -17.1253 394.188 1.10303 426.592 41.8618C469.127 95.2405 487.638 104.056 487.802 132.411C487.835 137.819 488.37 160.571 473.515 174.254C454.117 192.052 430.539 174.403 398.982 188.775C365.183 204.172 355.349 240.037 346.129 236.024C339.829 233.271 344.993 216.484 340.137 181.15C336.835 157.124 334.897 144.344 325.365 133.682C312.944 119.794 298.454 121.47 296.496 111.319Z" stroke="url(#paint10_linear_209_1970)" stroke-miterlimit="10"/>
<path d="M277.647 117.187C280.694 129.68 299.065 127.192 314.69 143.957C326.607 156.74 328.772 171.966 332.536 201.284C338.125 244.82 331.225 265.157 338.485 268.075C349.157 272.367 360.408 226.938 401.756 207.774C440.709 189.721 469.694 211.976 493.418 189.927C511.708 172.926 510.691 144.631 510.453 138.008C509.193 102.953 485.802 92.4661 432.31 26.3295C391.522 -24.0991 382.323 -46.1915 358.764 -46.681C341.459 -47.0406 324.005 -35.5942 314.69 -22.0737C292.878 9.56413 323.054 41.8266 300.63 80.6817C289.763 99.5103 274.811 105.565 277.647 117.187Z" stroke="url(#paint11_linear_209_1970)" stroke-miterlimit="10"/>
<path d="M433.54 318.263C430.339 316.641 423.617 319.767 423.022 324.637C422.349 330.161 429.955 334.731 433.297 333.311C437.25 331.629 437.788 320.41 433.54 318.263Z" stroke="url(#paint12_linear_209_1970)" stroke-miterlimit="10"/>
<path d="M442.561 347.616C448.017 342.513 450.402 333.149 453.13 317.098C455.834 301.181 455.41 289.786 453.033 288.959C451.738 288.513 448.069 292.004 444.921 294.562C439.029 299.337 428.944 298.807 426.359 299.324C416.895 301.217 414.116 304.732 410.16 311.465C408.329 314.575 404.06 321.47 402.181 329.582C399.315 341.867 386.468 345.653 388.034 350.577C389.351 354.687 402.078 355.685 410.33 355.801C422.157 355.969 434.125 355.496 442.561 347.616Z" stroke="url(#paint13_linear_209_1970)" stroke-miterlimit="10"/>
<path d="M452.019 361.334C460.988 352.216 464.516 336.913 469.951 308.296C475.473 279.541 475.437 259.817 472.717 259.081C470.676 258.519 464.065 265.628 458.446 270.709C447.855 280.327 428.895 278.746 424.988 279.362C407.169 282.115 402.778 288.71 395.872 301.176C392.995 306.368 385.103 319.023 381.507 333.968C375.972 356.864 349.73 362.859 351.902 371.347C353.716 378.416 378.051 379.5 393.363 378.919C414.984 378.078 436.864 376.747 452.019 361.334Z" stroke="url(#paint14_linear_209_1970)" stroke-miterlimit="10"/>
<path d="M461.426 374.962C473.915 361.831 478.547 340.58 486.718 299.405C495.016 257.802 495.403 229.796 492.348 229.098C489.549 228.449 480.002 239.158 471.928 246.775C456.664 261.261 428.806 258.597 423.574 259.295C397.406 262.789 391.379 272.559 381.542 290.784C377.616 298.055 366.105 316.473 360.787 338.244C352.591 371.753 312.952 379.952 315.723 392.006C318.038 402.033 353.986 403.247 376.353 401.92C407.761 400.148 439.586 397.926 461.426 374.962Z" stroke="url(#paint15_linear_209_1970)" stroke-miterlimit="10"/>
<path d="M470.803 388.583C486.821 371.439 492.55 344.236 503.458 290.503C514.544 236.059 515.355 199.778 511.954 199.105C508.395 198.393 495.906 212.658 485.382 222.817C465.417 242.138 428.692 238.419 422.135 239.217C387.617 243.406 379.909 256.375 367.184 280.379C362.193 289.724 347.081 313.91 340.045 342.508C329.181 386.628 276.144 397.033 279.523 412.655C282.333 425.634 329.894 426.93 359.318 424.912C400.501 422.135 442.29 419.104 470.803 388.583Z" stroke="url(#paint16_linear_209_1970)" stroke-miterlimit="10"/>
<path d="M420.683 219.131C377.818 223.999 368.498 240.223 352.815 269.968C346.786 281.404 328.042 311.341 319.287 346.764C305.768 401.5 239.325 414.11 243.307 433.295C246.617 449.249 305.789 450.601 342.27 447.897C393.244 444.112 444.989 440.277 480.169 402.198C499.716 381.039 506.541 347.892 520.187 281.596C534.039 214.307 535.275 169.76 531.543 169.105C527.217 168.348 511.805 186.141 498.826 198.85C474.156 223.003 428.568 218.236 420.683 219.131Z" stroke="url(#paint17_linear_209_1970)" stroke-miterlimit="10"/>
<path d="M72.1504 89.0644C77.0174 107.723 111.952 98.9586 153.538 140.983C168.439 156.042 178.43 171.793 198.152 174.243C200.142 174.489 219.9 176.65 233.844 163.968C251.387 148.014 240.679 125.881 261.153 95.0134C268.694 83.6427 269.949 86.9444 275.484 77.9776C299.105 39.7012 263.078 0.843429 283.866 -38.0279C293.435 -55.9208 307.66 -60.0284 306.308 -62.3647C300.473 -72.3888 58.9986 38.7872 72.1504 89.0644Z" stroke="url(#paint18_linear_209_1970)" stroke-miterlimit="10"/>
<path d="M203.56 148.736C204.755 148.573 217.783 149.547 226.719 140.58C238.019 129.258 229.964 113.669 242.91 92.623C247.674 84.8731 248.337 86.9741 251.727 80.844C266.193 54.6846 240.23 28.3684 252.944 2.76063C258.828 -9.0941 268.116 -11.8117 266.734 -12.9691C260.485 -18.2475 101.098 59.7304 113.617 93.6613C118.311 106.387 143.936 101.871 173.257 129.28C183.919 139.239 191.138 150.42 203.56 148.736Z" stroke="url(#paint19_linear_209_1970)" stroke-miterlimit="10"/>
<path d="M208.968 123.225C209.309 122.368 215.679 122.387 219.594 117.192C224.678 110.454 219.264 101.476 224.667 90.2353C226.649 86.1088 226.73 86.9904 227.974 83.7103C233.314 69.6031 217.361 55.9095 222.025 43.5464C224.207 37.7272 228.263 36.7348 227.181 36.4239C219.275 37.5461 143.36 80.7493 155.071 98.2583C159.643 105.1 176.01 104.772 192.963 117.576C199.407 122.444 203.625 126.008 208.968 123.225Z" stroke="url(#paint20_linear_209_1970)" stroke-miterlimit="10"/>
<path d="M214.376 97.7175C210.179 85.4544 193.658 81.2847 187.607 85.8195C178.684 92.5148 186.296 101.233 196.53 102.855C204.179 104.059 219.178 111.752 214.376 97.7175Z" stroke="url(#paint21_linear_209_1970)" stroke-miterlimit="10"/>
<defs>
<linearGradient id="paint0_linear_209_1970" x1="164.5" y1="219.5" x2="0.999985" y2="374.5" gradientUnits="userSpaceOnUse">
<stop stop-color="#1934A2"/>
<stop offset="1" stop-color="#1934A2" stop-opacity="0"/>
</linearGradient>
<linearGradient id="paint1_linear_209_1970" x1="164.5" y1="219.5" x2="0.999985" y2="374.5" gradientUnits="userSpaceOnUse">
<stop stop-color="#1934A2"/>
<stop offset="1" stop-color="#1934A2" stop-opacity="0"/>
</linearGradient>
<linearGradient id="paint2_linear_209_1970" x1="164.5" y1="219.5" x2="0.999985" y2="374.5" gradientUnits="userSpaceOnUse">
<stop stop-color="#1934A2"/>
<stop offset="1" stop-color="#1934A2" stop-opacity="0"/>
</linearGradient>
<linearGradient id="paint3_linear_209_1970" x1="164.5" y1="219.5" x2="0.999985" y2="374.5" gradientUnits="userSpaceOnUse">
<stop stop-color="#1934A2"/>
<stop offset="1" stop-color="#1934A2" stop-opacity="0"/>
</linearGradient>
<linearGradient id="paint4_linear_209_1970" x1="164.5" y1="219.5" x2="0.999985" y2="374.5" gradientUnits="userSpaceOnUse">
<stop stop-color="#1934A2"/>
<stop offset="1" stop-color="#1934A2" stop-opacity="0"/>
</linearGradient>
<linearGradient id="paint5_linear_209_1970" x1="164.5" y1="219.5" x2="0.999985" y2="374.5" gradientUnits="userSpaceOnUse">
<stop stop-color="#1934A2"/>
<stop offset="1" stop-color="#1934A2" stop-opacity="0"/>
</linearGradient>
<linearGradient id="paint6_linear_209_1970" x1="164.5" y1="219.5" x2="0.999985" y2="374.5" gradientUnits="userSpaceOnUse">
<stop stop-color="#1934A2"/>
<stop offset="1" stop-color="#1934A2" stop-opacity="0"/>
</linearGradient>
<linearGradient id="paint7_linear_209_1970" x1="164.5" y1="219.5" x2="0.999985" y2="374.5" gradientUnits="userSpaceOnUse">
<stop stop-color="#1934A2"/>
<stop offset="1" stop-color="#1934A2" stop-opacity="0"/>
</linearGradient>
<linearGradient id="paint8_linear_209_1970" x1="164.5" y1="219.5" x2="0.999985" y2="374.5" gradientUnits="userSpaceOnUse">
<stop stop-color="#1934A2"/>
<stop offset="1" stop-color="#1934A2" stop-opacity="0"/>
</linearGradient>
<linearGradient id="paint9_linear_209_1970" x1="164.5" y1="219.5" x2="0.999985" y2="374.5" gradientUnits="userSpaceOnUse">
<stop stop-color="#1934A2"/>
<stop offset="1" stop-color="#1934A2" stop-opacity="0"/>
</linearGradient>
<linearGradient id="paint10_linear_209_1970" x1="164.5" y1="219.5" x2="0.999985" y2="374.5" gradientUnits="userSpaceOnUse">
<stop stop-color="#1934A2"/>
<stop offset="1" stop-color="#1934A2" stop-opacity="0"/>
</linearGradient>
<linearGradient id="paint11_linear_209_1970" x1="164.5" y1="219.5" x2="0.999985" y2="374.5" gradientUnits="userSpaceOnUse">
<stop stop-color="#1934A2"/>
<stop offset="1" stop-color="#1934A2" stop-opacity="0"/>
</linearGradient>
<linearGradient id="paint12_linear_209_1970" x1="164.5" y1="219.5" x2="0.999985" y2="374.5" gradientUnits="userSpaceOnUse">
<stop stop-color="#1934A2"/>
<stop offset="1" stop-color="#1934A2" stop-opacity="0"/>
</linearGradient>
<linearGradient id="paint13_linear_209_1970" x1="164.5" y1="219.5" x2="0.999985" y2="374.5" gradientUnits="userSpaceOnUse">
<stop stop-color="#1934A2"/>
<stop offset="1" stop-color="#1934A2" stop-opacity="0"/>
</linearGradient>
<linearGradient id="paint14_linear_209_1970" x1="164.5" y1="219.5" x2="0.999985" y2="374.5" gradientUnits="userSpaceOnUse">
<stop stop-color="#1934A2"/>
<stop offset="1" stop-color="#1934A2" stop-opacity="0"/>
</linearGradient>
<linearGradient id="paint15_linear_209_1970" x1="164.5" y1="219.5" x2="0.999985" y2="374.5" gradientUnits="userSpaceOnUse">
<stop stop-color="#1934A2"/>
<stop offset="1" stop-color="#1934A2" stop-opacity="0"/>
</linearGradient>
<linearGradient id="paint16_linear_209_1970" x1="164.5" y1="219.5" x2="0.999985" y2="374.5" gradientUnits="userSpaceOnUse">
<stop stop-color="#1934A2"/>
<stop offset="1" stop-color="#1934A2" stop-opacity="0"/>
</linearGradient>
<linearGradient id="paint17_linear_209_1970" x1="164.5" y1="219.5" x2="0.999985" y2="374.5" gradientUnits="userSpaceOnUse">
<stop stop-color="#1934A2"/>
<stop offset="1" stop-color="#1934A2" stop-opacity="0"/>
</linearGradient>
<linearGradient id="paint18_linear_209_1970" x1="164.5" y1="219.5" x2="0.999985" y2="374.5" gradientUnits="userSpaceOnUse">
<stop stop-color="#1934A2"/>
<stop offset="1" stop-color="#1934A2" stop-opacity="0"/>
</linearGradient>
<linearGradient id="paint19_linear_209_1970" x1="164.5" y1="219.5" x2="0.999985" y2="374.5" gradientUnits="userSpaceOnUse">
<stop stop-color="#1934A2"/>
<stop offset="1" stop-color="#1934A2" stop-opacity="0"/>
</linearGradient>
<linearGradient id="paint20_linear_209_1970" x1="164.5" y1="219.5" x2="0.999985" y2="374.5" gradientUnits="userSpaceOnUse">
<stop stop-color="#1934A2"/>
<stop offset="1" stop-color="#1934A2" stop-opacity="0"/>
</linearGradient>
<linearGradient id="paint21_linear_209_1970" x1="164.5" y1="219.5" x2="0.999985" y2="374.5" gradientUnits="userSpaceOnUse">
<stop stop-color="#1934A2"/>
<stop offset="1" stop-color="#1934A2" stop-opacity="0"/>
</linearGradient>
</defs>
</svg>
